<mxfile host="app.diagrams.net" modified="2020-10-02T03:18:13.955Z" agent="5.0 (Windows NT 10.0; Win64; x64) AppleWebKit/537.36 (KHTML, like Gecko) Chrome/85.0.4183.121 Safari/537.36" etag="-DTzFgXeMRUgAXh9NzDx" version="13.7.7" type="github">
  <diagram name="Page-1" id="ad52d381-51e7-2e0d-a935-2d0ddd2fd229">
    <mxGraphModel dx="1034" dy="1300" grid="1" gridSize="10" guides="1" tooltips="1" connect="1" arrows="1" fold="1" page="1" pageScale="1" pageWidth="1100" pageHeight="850" background="#ffffff" math="0" shadow="0">
      <root>
        <mxCell id="0" />
        <mxCell id="1" parent="0" />
        <mxCell id="2c924340bb9dbf6c-2" value="Clasificación de suelos finogranulares" style="ellipse;whiteSpace=wrap;html=1;rounded=1;shadow=1;comic=0;labelBackgroundColor=none;strokeWidth=2;fontFamily=Verdana;fontSize=12;align=center;" parent="1" vertex="1">
          <mxGeometry x="260" y="110" width="120" height="80" as="geometry" />
        </mxCell>
        <mxCell id="2c924340bb9dbf6c-3" value="&lt;span&gt;&lt;font style=&quot;vertical-align: inherit&quot;&gt;&lt;font style=&quot;vertical-align: inherit&quot;&gt;Muestreo&lt;/font&gt;&lt;/font&gt;&lt;/span&gt;" style="ellipse;whiteSpace=wrap;html=1;rounded=1;shadow=1;comic=0;labelBackgroundColor=none;strokeWidth=2;fontFamily=Verdana;fontSize=12;align=center;" parent="1" vertex="1">
          <mxGeometry x="650" y="110" width="120" height="80" as="geometry" />
        </mxCell>
        <mxCell id="2c924340bb9dbf6c-4" value="&lt;font style=&quot;vertical-align: inherit&quot;&gt;&lt;font style=&quot;vertical-align: inherit&quot;&gt;Sistema unificado de suelos(SUCS)&lt;/font&gt;&lt;/font&gt;" style="ellipse;whiteSpace=wrap;html=1;rounded=1;shadow=1;comic=0;labelBackgroundColor=none;strokeWidth=2;fontFamily=Verdana;fontSize=12;align=center;" parent="1" vertex="1">
          <mxGeometry x="530" y="260" width="120" height="120" as="geometry" />
        </mxCell>
        <mxCell id="2c924340bb9dbf6c-5" value="&lt;span&gt;Clasificacion de la Turba&lt;/span&gt;" style="ellipse;whiteSpace=wrap;html=1;rounded=1;shadow=1;comic=0;labelBackgroundColor=none;strokeWidth=2;fontFamily=Verdana;fontSize=12;align=center;" parent="1" vertex="1">
          <mxGeometry x="750" y="290" width="120" height="80" as="geometry" />
        </mxCell>
        <mxCell id="2c924340bb9dbf6c-6" value="&lt;span&gt;Procedimiento de clasificación preliminar&lt;/span&gt;" style="ellipse;whiteSpace=wrap;html=1;rounded=1;shadow=1;comic=0;labelBackgroundColor=none;strokeWidth=2;fontFamily=Verdana;fontSize=12;align=center;" parent="1" vertex="1">
          <mxGeometry x="270" y="400" width="120" height="80" as="geometry" />
        </mxCell>
        <mxCell id="2c924340bb9dbf6c-11" value="&lt;p style=&quot;line-height: 80%&quot;&gt;&lt;img src=&quot;data:image/jpeg;base64,/9j/4AAQSkZJRgABAQAAAQABAAD/2wBDAAgGBgcGBQgHBwcJCQgKDBQNDAsLDBkSEw8UHRofHh0aHBwgJC4nICIsIxwcKDcpLDAxNDQ0Hyc5PTgyPC4zNDL/2wBDAQkJCQwLDBgNDRgyIRwhMjIyMjIyMjIyMjIyMjIyMjIyMjIyMjIyMjIyMjIyMjIyMjIyMjIyMjIyMjIyMjIyMjL/wgARCACsAfkDASIAAhEBAxEB/8QAGgABAAMBAQEAAAAAAAAAAAAAAAIDBQQBBv/EABUBAQEAAAAAAAAAAAAAAAAAAAAB/9oADAMBAAIQAxAAAALfAAAAAAAAAAAAAAAAAAAAAAAAAAAAAAAAAAOU6lYsQrL0YlimZNVImjUXo+E1dZ0IQLkZAAAAAArLHNaWK4F6uRJV6WKZk0ay5CBcjEsQE1MyYAAAAHP0DJ91RkT1Bn16gx7NSBly1BxcurMzqdcZTVGV7qDP0AAAAAAeeozatdWU1RkdXbzRx+6XpltQcXNrDi5dX2uTj15GVHXGTLUICgAAAAAAAOPs8jJ81fLOfsFAAAAAAAAAAAAZ2iMiG0ODk2hh3afhw8H0Hkc/UWAoAAAAAAAAADz1Ge7o1YAAAAAAAAAAAAAAADPj2hb56gKAAAAAAAAAAABy09yJCgAAAAAAAAAAAAAEZeRnu9ULQAAAAAAAAAAAACM7zRHooAAAAAAAAAAAAACPL2eRmtJVVwgKAAAAAAAAAAAEZzQiTFAAAAAAAAAAAAAAc1XajO80RXcWAoAAAAAAAAAAAHLG+EdAoAAAAAAAAAAAAB575HB0QuOSz2VW2RkgKAAAAAAAAAAAAAAAAAAAAAAAAAAAAAAAAAAAAAAAAAAAAAAAAAAAAAAAAAEBQAAAAAAAAAH/2gAMAwEAAgADAAAAIfPPPPPPPPPPPPPPPPPPPPPPPPPPPPPPPPPPMPNOMOOPNNPPPPPPNPOOPMMNOMPPPPPLLDHLMDHDPHPPPPPLrHOmjkiFDPfPPPPPPPPPldPPPPPPPPPPPPPDLEDlfPPPPPPPPPPPhHPPPPPPPPPPPPPPKPHfPPPPPPPPPPPOJnPPPPPPPPPPPPPPLiFPPPPPPPPPPPPKvlPPPPPPPPPPPPPPFrNfPPPPPPPPPPPKhnPPPPPPPPPPPPPPKkvfPPPPPPPPPPPLOvPPPPPPPPPPPPPLipNfPPPPPPPPPPPPPPPPPPPPPPPPPPPPPPPPPPPPPPPPPPMNPPPOPPNNPPOOPNvNPPPOPPPOPP/aAAwDAQACAAMAAAAQ888888888888888888888888888888888800ww8w8wwww8888880444w4444808888MI48w4cQsEM88888OIomOC+EAA3c88888888GRU888888888888YwwsXf888888888886Q08888888888888848d888888888888sO088888888888888iQc888888888888uK888888888888888eM988888888888822088888888888884qK18888888888884eU8888888888888/ao988888888888888c888888888888888sc888888wwwww844ww0ww44ww00w6w4www0www0w/8QAIREAAgIBBAMBAQAAAAAAAAAAAREAITAQMUBBUFFhAiL/2gAIAQIBAT8A8k8G+EVtob1O7hsk4SHqbChhuJx25+f5LGhJJB9YjH2M3bg2n3Qhwll5Dctjgus/b4BDnS563goLn+4KCzjrOYWip198cLzPJ//EACARAAEDAwUBAAAAAAAAAAAAAAEAESEQMEAgMUFRYGH/2gAIAQMBAT8A8GZ0/EIq2oRUd0EIQmhkS4agDPmugGDXe8IXuGwhe7wTMoZz7UF5t743lBnDrlDw/wD/xAA1EAACAQMCBAQEBAUFAAAAAAABAgMAERIEIRMiMVEFQEFhFCMycRVCUJEwM1KBoUNTcIDB/9oACAEBAAE/Av8AkXUawadwpika/QgUJ02yOJPoetceL/cX964qBguYuaTVI8xjF7ilkR/pYGjPEDbiL+9SalIwu98jtXFT+oUuojKglsb+hrjR45ZrYe9B1K5Ai3el1cTOyhvpFyazXHLIY9640ZBOYsPeuPFjfiLb70msjkthzXNqE0Z6Ov702pRJES+7G1LIj/SwP2/izScKPLBm9lqDWpNHxMWRe71xox+dd/euNHiTmth71Lqo4lDdQe1cZNrsBfpTSKn1MBRnTFiGDW7UJ0NuYAn0pdTGVuTjvbehKhvZxtSyK4urAj2oaqNpjEDuBcmuKhQuDcDtSaqJkVsgMul6aRV+pgK40Z/1F/ejIgFyw2ozRra7jfpvS6qFsrOOU2NcVMgMxc/xNVC03CxtyvetV4fqJ53YYWNrU3hbEbBL8O396bw7UF0PJy23r8Nfa2IOTEn71o9HJDMHYIoC48vrX4axfIhP5hb+1SeG6holj5NltXwE3xQm5Olrf+1+FyFSDgTw8R970fDpASVCWuDh6Gk0bjQSQkgM5J26Cj4bOwJtGvTlHram07w+FSx25jc2FLoZzExAjXIDlqDw11ZOIEKhmNqXw6XYcigZbj3oaGfg44RKy26etqGh1GYc4XzLf4rQaOXTys8mO622/isLoRTaKb4KKIYEq29DwuTh2bA8lhTeHzDMJhYldqTw2TFA+BxDUfDZrW5GugW5/L9qn0hlMPQhBveh4bIqWGA+VifvX4c/XkyyU3+1DwyS/Ngfr/zX4ZJw2UFVugG3qa0+kkTjFsUzFsUoeGzYyDkW8eItWk0jxQyhrAv6A0/huoZAnJ9Nqm0jTcC+JCdb03hUuMWGF16++9P4fO8ZvjkZMsb1L4bMYowuOSjvUXhsoGMgjIzDGp9DNJqsxhiCLeUeRYxdvXarjvWQ71HIsq3U+tvNy66CGTB2Nx7UGBtY9auO9A3q4q471cd6kkWJMnNhWYxveo3WRA67g+Z1oOcDegevhZ8JF4JzIb5mfWvgJVa6qfy25v3rQg3nb8pk283JoWm1krMzLGy22PWjopxrDYNhcYkHoKXSascYKpFx6mtFDIjSEoY0I2S96+D1fzggK5A7k0mi1IUXjYqLZJl9VT6aZrWhJXCwXL6DWujkGihDcxUjKmb5qjq/F+oN6favDwRpvYsSPM2vQlRnwDDLtRmjD4Fhl2oC3T9A4qYFshYetGeMKGLixrZh3FYJe+Iv9q6eZNRgh4xgwMbMWONOD8RnGJc2tbba36DwimlYBDYSXtb0rFkIkZGKnLbHpWmUppkVuoHnM1LYXF+1GWNXwyGXb9AJsKE8RQsHFhRniVQxcWNA3Fx5wJw9a8mPLhuacMzsAjc7KwNvT9Ak2jY2y26UFLxNJi+eQLDAigrIwkKMVOX5elaZSmmRW6gecyUnG4v2rJQcbi/b9AvcVmpW+QtWagXyFvOxPC2qupCBL/dqksZW/rLKU+3n5FzjKmolI8PxXrY02J4jR/ybr0rYEGT+VzY1pQRpo8utvO7D9filc+I3cOLodiNhUh+czX5wwx39PP64n4Y29agLDSTAdR26U1l4ioflXX1rYkLIfl81t60pY6aMt1t5wqD1FcNNuUXHTz5AYWIuKCqosAAKEaBcQot2tXDQixQW+3nVkn+L4fIVAubU+pcarDYJ3I88xxUntSa92XLl3HKKjnbGTiWvH2r42UYcq/N+j2r4mRrIuOe97+1QycWJX7jzgix4hU8z0dNmRlI1trjzxFxavgVtYuxsLL7VHAEVgTkW6k18Cv8AW3L9PtR0gsLOQ3fvUaCNAg6D/od//8QAKBABAAICAQMDBAIDAAAAAAAAAQARITFBQFFhcYGRMFChwRDxIHCA/9oACAEBAAE/If8AYt6ohZC9pRI87qM1QKgOovc8kQdRxFzdMQIE2Q0uio/mJ3mTi4LzuNMyO6mLAXmxA+4rOINX6hiAK+x4RAOxp5Ru9CWOKliqprHKNWyhXD5jrjd2+rbYngtiJcGVDEwpGndOcxS8Iol1N5SXY4LuFmZ7sHVDaO2VR5Fcxlv1HWoGkm1Op5skpdZ7OVAEzXauI8osOmBiC92DqEhUGKlvUIQzk2jp5UPMT7FC9/UWswnfaZi8ndJXtGeyX9W4ml5cs43xARquHdaTDCGfzZUq5V8rUA1xNtN+kDo1rn8flMjRnOskelplwHMGbAOTxLxHVceTEUgcgXuNRQ101+4/ZhK9mIPeGbnDEpRhG/zS8AxV3V0lVAKj5+Pq1VtKm6YCuzxH5cLNdN3DA3z2meISiAVd71AmlwrmvMX/AHw7uKhm8tVzaZ3iTsNojSd3wj7QwB3jA686DzL3clPbe2DkVRYNTNSFbdU/EcxCV5YhUrvcq5CIq8REqCvciutvpqErCo5K1MebL0gcQ+rX+RpKtTyzdhieFEF4EvCdWrIK3LEPQNLPSDXQxAFiPpBLpLJiulesSrDOsxZUJ4RVxUeE9T6jT9Q0gjydYlqUi/7E7zL8C+rDlTC9saqihSg1DhFqTtzqyC9cNu5YC40R7vwkbGiyDDfMWeHd72IY2eQdGiuS2hiv4cvqUCkH1jxYQSCUAKAHj7BymqbYhcGp7w7BCfmNAAoKOpyGJy8HUjfPO4jKh2z/AKQ69LKYXinTtbtAGeAEttY4hyVmnbrLW0S3wglgtfYAIrQTlSJ7QyDUwASxyPWCUxYhtuKwNh693EOvQgwaC7iQZaCDgEzAR/QEttYh6VmnbrB8MN2lDSWrdewFgid4KFDzeIisFpuHVst4nC83PtFTZeP0h1xJEE4ajWwAEwZyKY8zG5YyGPECrYd9Y0lMAAMVDrn+MV4mIdW6lDXQSAJLrWrkOuACpQbo95Rhe1ex6TIbcrAvcMPCcIxqIyteXrNGOKuBKxlKsnXqBJwzxngIgDexhEFk6HAgV1bHJ5Ihs7TSuQsZvzDrRV0LiGjzZD+5gPlOriIG0+T5S+Gi7tUYvrNXWX1LLt4xGQ7JwqdcTrTiFYBxGMQX62S+hq8M2E/dkNtzR60f8Hf/xAAoEAEBAAIBAwQCAgIDAAAAAAABEQAhMUBBURBhcYEwkbHRIHChweH/2gAIAQEAAT8Q/wBiOC/iXQ8rzihNiGD2TziKRogk98MsFc34YKgpqKnMcR2MBqZRFVBSc4HWSVsfJeDCRUSDbLJ5x6+aCDc4uaUiSaD84DaSwNPnImKANXjeUsRZGnzjVq1ifJwVi+lI5mD7mpB3lvbCwmlBnhjSH1KAV9msJUnALPyqH3XRPMw7H0BuzTd8YZuK0ae2aCkjEXhzmIqjTzitNSGNYkDcEi4+MjWGQNoQO6WS84KCIkmopvjCTLWKD3xKWMQIYSqHEmpz5xTeELhkeqioWcZwY4SLl4qDod2GXskRBeHNl7UAfDAw9nAIul5xJmYuaHiYP4nHQmz5pzPfEoujsmx2X94FiYV53tPHfAtjIM8Luf3hiS6tWizfPGbCe4bt4zeNA1PZBBx57YytfsrWI1SfGMSJNo8Wp3Yn0iqOxXGtPOE0aSmkeHnG4sm+Afb+8spCz8z5PjADmDiPYf8Ahgp7yMtlaaXw4hpZxQtCBpw0WLMoQUnJcBM6aFq1zV+HGU+oYEhxveC4xaaG2QB+Rx4KsX3MY0k1qjyRjs7Y1sTKCSTXjBZXSYIx3AbNzDdqQgPap2wo14tF4P64y7OV5bJk3vL6FdJaxdbJhdHK5oAFmuMBIMoEsXXxmy98SFF4cPnECyGVwTtNuNU5JqVcPfvge8IAkV0B9Ga0d2YleaU+JhwABlERrW94Gj+6CgqGyH1m6dELiIqc/WXMRgjpAUP0HPBbkVDEyPwqNrtE37b/ACIZDI8ZMhkyYmS9hCVTgMHQV2S8Ydh9zT3zjgUIoiJkMhkMmQyGQyflmQyGTIYmtYUpE2C8KhrA7wTeVwmQCO6PGQjPKuKBXIDxl3ptLEMESJyI3hQe6e74zelFDvOeMLyG4QyGQyHjIZJ0Tl0sg+woifvOd+kApQV/MkxU8SjSSt4mYj57MBHyj+uqc0NmUIdo5xs6VhMutOOxu4ZR6otoTdO6GFdDmpOUULhSg1gTQRu+UJmzqDM5Cfyd4yxSs2aSpZ5Lj6T9yyVwRarFiM2sDyYYaAb5uf31DxkojwLnNc0OyZHuEbveS1XAIdXDIeMh4yGMDKBVgtCclzkXTOEFNiO4jgUziSLPFwyYCAEDqQiHaYvsggFEiVGi8e2EwEBXvKyQPCjld+evJeB04cDa5RHHJ1jk7VoxoloE2auNuAE59n1x1aYD+zfUWqmQnoU/Rh15JgVXsYyxpbX2zQOFnnCwCANEe/VuHj0rpvvyzNIH5gRbEg7OcT465x2IFeteAOcVoLzjaNMl3N4dqF5GNEpQTZq404ATn2fXHVq5wregp8mLEC4Ap7GHXICrM9mUmmc6aCUfea4dqQfhxUo06tEbx3wG68WxGm7nfPPxkLRgKuiq8S3Pd465ZExWX7MHQIW3l84AF8eOXU+JcLcAqlqafVmFuDY5B2H6nVphUVE2PfCCAIHt15AVwRKNMHgT+GLBUnbrDiYsLDJr4xgJqTe6+4YJ+gVcncLEd5w31yIxVrY9xwecbRFldThu5il6e5odW6pLlOFpUijndwsxwApyvhfqdU+hrQU0bjyXC+gmmBqDzhrrH0IoERo/Wewm8H6M4OPAL5Mf5usfgO2AAAA0B1TlTXOMjLEC8Ksr/wBY/wB3T9dgNH3ip1jnOsV9GVBiJQqBV4b2mBNOyyO2rxj9lADSuvfresDTgC0oNHO1PjOdMFVj3P31aYO6Ty2IA9if85Wg45541TeGtdaM9NR7OIblNBuuobkOcWFFIDpJD2xI1pM5W61v7zSFu4G9CTBNQtuddZPQ6+ep/o++lw9Lr075cVmXK5c7Y+l9Ll5yuXD0uK4OXLl9Lly5X0uXLlcuXLgsy6y6y+t9F1lZh/gcZfS5fT///gADAP/Z&quot; width=&quot;505&quot; height=&quot;172&quot;&gt;&lt;/p&gt;" style="whiteSpace=wrap;html=1;rounded=1;shadow=1;comic=0;labelBackgroundColor=none;strokeWidth=2;fontFamily=Verdana;fontSize=12;align=center;arcSize=50;" parent="1" vertex="1">
          <mxGeometry x="1020" y="20" width="10" height="30" as="geometry" />
        </mxCell>
        <mxCell id="2c924340bb9dbf6c-14" value="&lt;font style=&quot;font-size: 10px&quot;&gt;Las muestras deben ser obtenidas e identificadas de acuerdo con el método o métodos&lt;br&gt;recomendados en la norma ASTM D420, o con otros procedimientos aceptados.&amp;nbsp;&lt;/font&gt;" style="whiteSpace=wrap;html=1;rounded=1;shadow=1;comic=0;labelBackgroundColor=none;strokeWidth=2;fontFamily=Verdana;fontSize=12;align=center;arcSize=50;" parent="1" vertex="1">
          <mxGeometry x="420" y="-50" width="260" height="80" as="geometry" />
        </mxCell>
        <mxCell id="2c924340bb9dbf6c-15" value="&lt;font style=&quot;font-size: 10px&quot;&gt;Cuando también se deban realizar ensayos de límite líquido (LL) y límite plástico (LP), se necesitará material adicional suficiente para contar con 150 g a 200 g de suelo que pasa el tamiz de 425 µm&lt;/font&gt;" style="whiteSpace=wrap;html=1;rounded=1;shadow=1;comic=0;labelBackgroundColor=none;strokeWidth=2;fontFamily=Verdana;fontSize=12;align=center;arcSize=50;" parent="1" vertex="1">
          <mxGeometry x="610" y="-150" width="320" height="70" as="geometry" />
        </mxCell>
        <mxCell id="2c924340bb9dbf6c-16" value="&lt;font style=&quot;font-size: 10px&quot;&gt;Si la muestra de campo o el espécimen para el ensayo es menor que la cantidad&lt;br&gt;mínima recomendada, en el informe se debe incluir una anotación al respecto.&lt;/font&gt;" style="whiteSpace=wrap;html=1;rounded=1;shadow=1;comic=0;labelBackgroundColor=none;strokeWidth=2;fontFamily=Verdana;fontSize=12;align=center;arcSize=50;" parent="1" vertex="1">
          <mxGeometry x="840" y="180" width="320" height="60" as="geometry" />
        </mxCell>
        <mxCell id="2c924340bb9dbf6c-31" value="relation" style="edgeStyle=none;rounded=1;html=1;labelBackgroundColor=none;startArrow=none;startFill=0;startSize=5;endArrow=classicThin;endFill=1;endSize=5;jettySize=auto;orthogonalLoop=1;strokeColor=#B3B3B3;strokeWidth=1;fontFamily=Verdana;fontSize=12" parent="1" source="2c924340bb9dbf6c-4" target="2c924340bb9dbf6c-2" edge="1">
          <mxGeometry relative="1" as="geometry" />
        </mxCell>
        <mxCell id="2c924340bb9dbf6c-32" value="relation" style="edgeStyle=none;rounded=1;html=1;labelBackgroundColor=none;startArrow=none;startFill=0;startSize=5;endArrow=classicThin;endFill=1;endSize=5;jettySize=auto;orthogonalLoop=1;strokeColor=#B3B3B3;strokeWidth=1;fontFamily=Verdana;fontSize=12" parent="1" source="2c924340bb9dbf6c-4" target="2c924340bb9dbf6c-3" edge="1">
          <mxGeometry relative="1" as="geometry" />
        </mxCell>
        <mxCell id="2c924340bb9dbf6c-33" value="relation" style="edgeStyle=none;rounded=1;html=1;labelBackgroundColor=none;startArrow=none;startFill=0;startSize=5;endArrow=classicThin;endFill=1;endSize=5;jettySize=auto;orthogonalLoop=1;strokeColor=#B3B3B3;strokeWidth=1;fontFamily=Verdana;fontSize=12;exitX=1;exitY=0.5;exitDx=0;exitDy=0;" parent="1" source="2c924340bb9dbf6c-4" target="2c924340bb9dbf6c-5" edge="1">
          <mxGeometry relative="1" as="geometry" />
        </mxCell>
        <mxCell id="2c924340bb9dbf6c-36" value="relation" style="edgeStyle=none;rounded=1;html=1;labelBackgroundColor=none;startArrow=none;startFill=0;startSize=5;endArrow=classicThin;endFill=1;endSize=5;jettySize=auto;orthogonalLoop=1;strokeColor=#B3B3B3;strokeWidth=1;fontFamily=Verdana;fontSize=12;exitX=0.5;exitY=1;exitDx=0;exitDy=0;" parent="1" source="2c924340bb9dbf6c-4" target="2c924340bb9dbf6c-6" edge="1">
          <mxGeometry relative="1" as="geometry" />
        </mxCell>
        <mxCell id="2c924340bb9dbf6c-43" value="relation" style="edgeStyle=none;rounded=1;html=1;labelBackgroundColor=none;startArrow=none;startFill=0;startSize=5;endArrow=classicThin;endFill=1;endSize=5;jettySize=auto;orthogonalLoop=1;strokeColor=#B3B3B3;strokeWidth=1;fontFamily=Verdana;fontSize=12" parent="1" source="2c924340bb9dbf6c-3" target="2c924340bb9dbf6c-16" edge="1">
          <mxGeometry relative="1" as="geometry" />
        </mxCell>
        <mxCell id="2c924340bb9dbf6c-44" value="relation" style="edgeStyle=none;rounded=1;html=1;labelBackgroundColor=none;startArrow=none;startFill=0;startSize=5;endArrow=classicThin;endFill=1;endSize=5;jettySize=auto;orthogonalLoop=1;strokeColor=#B3B3B3;strokeWidth=1;fontFamily=Verdana;fontSize=12" parent="1" source="2c924340bb9dbf6c-3" target="2c924340bb9dbf6c-15" edge="1">
          <mxGeometry relative="1" as="geometry" />
        </mxCell>
        <mxCell id="2c924340bb9dbf6c-45" value="relation" style="edgeStyle=none;rounded=1;html=1;labelBackgroundColor=none;startArrow=none;startFill=0;startSize=5;endArrow=classicThin;endFill=1;endSize=5;jettySize=auto;orthogonalLoop=1;strokeColor=#B3B3B3;strokeWidth=1;fontFamily=Verdana;fontSize=12" parent="1" source="2c924340bb9dbf6c-3" target="2c924340bb9dbf6c-14" edge="1">
          <mxGeometry relative="1" as="geometry" />
        </mxCell>
        <mxCell id="2c924340bb9dbf6c-46" value="relation" style="edgeStyle=none;rounded=1;html=1;labelBackgroundColor=none;startArrow=none;startFill=0;startSize=5;endArrow=classicThin;endFill=1;endSize=5;jettySize=auto;orthogonalLoop=1;strokeColor=#B3B3B3;strokeWidth=1;fontFamily=Verdana;fontSize=12" parent="1" source="2c924340bb9dbf6c-3" target="2c924340bb9dbf6c-11" edge="1">
          <mxGeometry relative="1" as="geometry" />
        </mxCell>
        <mxCell id="2c924340bb9dbf6c-52" value="&lt;span&gt;Preparación para la clasificación&lt;/span&gt;" style="ellipse;whiteSpace=wrap;html=1;rounded=1;shadow=1;comic=0;labelBackgroundColor=none;strokeWidth=2;fontFamily=Verdana;fontSize=12;align=center;" parent="1" vertex="1">
          <mxGeometry x="650" y="425" width="120" height="80" as="geometry" />
        </mxCell>
        <mxCell id="2c924340bb9dbf6c-53" value="&lt;font style=&quot;font-size: 9px&quot;&gt;La preparación de los especímenes de suelo y los ensayos para la determinación de la&lt;br&gt;granulometría, límite líquido (LL) e índice plástico (IP), se deben hacer de acuerdo con procedimientos normales aceptados.&lt;/font&gt;" style="whiteSpace=wrap;html=1;rounded=1;shadow=1;comic=0;labelBackgroundColor=none;strokeWidth=2;fontFamily=Verdana;fontSize=12;align=center;arcSize=50;" parent="1" vertex="1">
          <mxGeometry x="870" y="645" width="210" height="100" as="geometry" />
        </mxCell>
        <mxCell id="2c924340bb9dbf6c-54" value="&lt;font style=&quot;font-size: 9px&quot;&gt;Antes de que un suelo se pueda clasificar de acuerdo con esta norma, se debe determinar la granulometría del material menor de 75 mm y las características de plasticidad&lt;br&gt;del material que pasa por el tamiz de 425 µm&lt;/font&gt;" style="whiteSpace=wrap;html=1;rounded=1;shadow=1;comic=0;labelBackgroundColor=none;strokeWidth=2;fontFamily=Verdana;fontSize=12;align=center;arcSize=50;" parent="1" vertex="1">
          <mxGeometry x="790" y="750" width="230" height="90" as="geometry" />
        </mxCell>
        <mxCell id="2c924340bb9dbf6c-58" value="&lt;font style=&quot;font-size: 9px&quot;&gt;Una muestra compuesta principalmente de material vegetal en varios estados de&lt;br&gt;descomposición y con una textura amorfa a fibrosa, color pardo oscuro a negro y olor orgánico, se debe designar como suelo orgánico y clasificar como turba, PT, y no&lt;/font&gt;" style="whiteSpace=wrap;html=1;rounded=1;shadow=1;comic=0;labelBackgroundColor=none;strokeWidth=2;fontFamily=Verdana;fontSize=12;align=center;arcSize=50;" parent="1" vertex="1">
          <mxGeometry x="960" y="300" width="220" height="100" as="geometry" />
        </mxCell>
        <mxCell id="2c924340bb9dbf6c-59" value="&lt;font style=&quot;font-size: 10px&quot;&gt;Si se desea, la clasificación de la turba puede hacerse de acuerdo con la norma ASTM&lt;br&gt;D4427.&lt;/font&gt;" style="whiteSpace=wrap;html=1;rounded=1;shadow=1;comic=0;labelBackgroundColor=none;strokeWidth=2;fontFamily=Verdana;fontSize=12;align=center;arcSize=50;" parent="1" vertex="1">
          <mxGeometry x="880" y="435" width="150" height="70" as="geometry" />
        </mxCell>
        <mxCell id="2c924340bb9dbf6c-60" value="&lt;font style=&quot;font-size: 9px&quot;&gt;Cuando se reportan clasificaciones de suelos determinadas por esta norma, se debe&lt;br&gt;informar o referenciar los procedimientos de preparación y ensayo que se utilizaron.&lt;/font&gt;" style="whiteSpace=wrap;html=1;rounded=1;shadow=1;comic=0;labelBackgroundColor=none;strokeWidth=2;fontFamily=Verdana;fontSize=12;align=center;arcSize=50;" parent="1" vertex="1">
          <mxGeometry x="420" y="665" width="260" height="80" as="geometry" />
        </mxCell>
        <mxCell id="2c924340bb9dbf6c-63" value="relation" style="edgeStyle=none;rounded=1;html=1;labelBackgroundColor=none;startArrow=none;startFill=0;startSize=5;endArrow=classicThin;endFill=1;endSize=5;jettySize=auto;orthogonalLoop=1;strokeColor=#B3B3B3;strokeWidth=1;fontFamily=Verdana;fontSize=12" parent="1" source="2c924340bb9dbf6c-52" target="2c924340bb9dbf6c-53" edge="1">
          <mxGeometry relative="1" as="geometry" />
        </mxCell>
        <mxCell id="2c924340bb9dbf6c-64" value="relation" style="edgeStyle=none;rounded=1;html=1;labelBackgroundColor=none;startArrow=none;startFill=0;startSize=5;endArrow=classicThin;endFill=1;endSize=5;jettySize=auto;orthogonalLoop=1;strokeColor=#B3B3B3;strokeWidth=1;fontFamily=Verdana;fontSize=12" parent="1" source="2c924340bb9dbf6c-52" target="2c924340bb9dbf6c-54" edge="1">
          <mxGeometry relative="1" as="geometry" />
        </mxCell>
        <mxCell id="2c924340bb9dbf6c-65" value="relation" style="edgeStyle=none;rounded=1;html=1;labelBackgroundColor=none;startArrow=none;startFill=0;startSize=5;endArrow=classicThin;endFill=1;endSize=5;jettySize=auto;orthogonalLoop=1;strokeColor=#B3B3B3;strokeWidth=1;fontFamily=Verdana;fontSize=12;exitX=0.933;exitY=0.792;exitDx=0;exitDy=0;exitPerimeter=0;" parent="1" source="2c924340bb9dbf6c-4" target="2c924340bb9dbf6c-52" edge="1">
          <mxGeometry relative="1" as="geometry">
            <mxPoint x="630" y="320" as="sourcePoint" />
            <Array as="points" />
          </mxGeometry>
        </mxCell>
        <mxCell id="2c924340bb9dbf6c-68" value="&lt;font style=&quot;font-size: 9px&quot;&gt;Aunque el procedimiento de ensayo utilizado para la determinación de la distribución&lt;br&gt;granulométrica u otras consideraciones pueden requerir un análisis por hidrómetro del material, dicho análisis no es necesario para la clasificación del suelo.&lt;/font&gt;" style="whiteSpace=wrap;html=1;rounded=1;shadow=1;comic=0;labelBackgroundColor=none;strokeWidth=2;fontFamily=Verdana;fontSize=12;align=center;arcSize=50;" parent="1" vertex="1">
          <mxGeometry x="950" y="555" width="250" height="90" as="geometry" />
        </mxCell>
        <mxCell id="2c924340bb9dbf6c-69" value="&lt;font style=&quot;font-size: 9px&quot;&gt;Debe determinarse y registrarse el porcentaje (por peso seco) del material mayor a&lt;br/&gt;75 mm, como información auxiliar.&lt;/font&gt;" style="whiteSpace=wrap;html=1;rounded=1;shadow=1;comic=0;labelBackgroundColor=none;strokeWidth=2;fontFamily=Verdana;fontSize=12;align=center;arcSize=50;" parent="1" vertex="1">
          <mxGeometry x="580" y="750" width="190" height="80" as="geometry" />
        </mxCell>
        <mxCell id="2c924340bb9dbf6c-70" value="&lt;font style=&quot;font-size: 9px&quot;&gt;El tamaño máximo de partícula se debe determinar (por medición o por estimación) y&lt;br/&gt;reportar como una información adicion&lt;/font&gt;&lt;font style=&quot;font-size: 9px&quot;&gt;&lt;font&gt;al&lt;/font&gt;.&lt;/font&gt;" style="whiteSpace=wrap;html=1;rounded=1;shadow=1;comic=0;labelBackgroundColor=none;strokeWidth=2;fontFamily=Verdana;fontSize=12;align=center;arcSize=50;" parent="1" vertex="1">
          <mxGeometry x="170" y="640" width="200" height="80" as="geometry" />
        </mxCell>
        <mxCell id="2c924340bb9dbf6c-72" value="relation" style="edgeStyle=none;rounded=1;html=1;labelBackgroundColor=none;startArrow=none;startFill=0;startSize=5;endArrow=classicThin;endFill=1;endSize=5;jettySize=auto;orthogonalLoop=1;strokeColor=#B3B3B3;strokeWidth=1;fontFamily=Verdana;fontSize=12" parent="1" source="2c924340bb9dbf6c-52" target="2c924340bb9dbf6c-70" edge="1">
          <mxGeometry relative="1" as="geometry">
            <mxPoint x="235.99762285148063" y="451.1045079207797" as="sourcePoint" />
          </mxGeometry>
        </mxCell>
        <mxCell id="2c924340bb9dbf6c-73" value="relation" style="edgeStyle=none;rounded=1;html=1;labelBackgroundColor=none;startArrow=none;startFill=0;startSize=5;endArrow=classicThin;endFill=1;endSize=5;jettySize=auto;orthogonalLoop=1;strokeColor=#B3B3B3;strokeWidth=1;fontFamily=Verdana;fontSize=12" parent="1" source="2c924340bb9dbf6c-52" target="2c924340bb9dbf6c-69" edge="1">
          <mxGeometry relative="1" as="geometry" />
        </mxCell>
        <mxCell id="2c924340bb9dbf6c-74" value="relation" style="edgeStyle=none;rounded=1;html=1;labelBackgroundColor=none;startArrow=none;startFill=0;startSize=5;endArrow=classicThin;endFill=1;endSize=5;jettySize=auto;orthogonalLoop=1;strokeColor=#B3B3B3;strokeWidth=1;fontFamily=Verdana;fontSize=12;exitX=1;exitY=0.5;exitDx=0;exitDy=0;" parent="1" source="2c924340bb9dbf6c-52" target="2c924340bb9dbf6c-68" edge="1">
          <mxGeometry relative="1" as="geometry" />
        </mxCell>
        <mxCell id="2c924340bb9dbf6c-76" value="relation" style="edgeStyle=none;rounded=1;html=1;labelBackgroundColor=none;startArrow=none;startFill=0;startSize=5;endArrow=classicThin;endFill=1;endSize=5;jettySize=auto;orthogonalLoop=1;strokeColor=#B3B3B3;strokeWidth=1;fontFamily=Verdana;fontSize=12;exitX=0;exitY=1;exitDx=0;exitDy=0;" parent="1" source="2c924340bb9dbf6c-52" target="2c924340bb9dbf6c-60" edge="1">
          <mxGeometry relative="1" as="geometry" />
        </mxCell>
        <mxCell id="2c924340bb9dbf6c-77" value="relation" style="edgeStyle=none;rounded=1;html=1;labelBackgroundColor=none;startArrow=none;startFill=0;startSize=5;endArrow=classicThin;endFill=1;endSize=5;jettySize=auto;orthogonalLoop=1;strokeColor=#B3B3B3;strokeWidth=1;fontFamily=Verdana;fontSize=12" parent="1" source="2c924340bb9dbf6c-5" target="2c924340bb9dbf6c-58" edge="1">
          <mxGeometry relative="1" as="geometry" />
        </mxCell>
        <mxCell id="2c924340bb9dbf6c-78" value="relation" style="edgeStyle=none;rounded=1;html=1;labelBackgroundColor=none;startArrow=none;startFill=0;startSize=5;endArrow=classicThin;endFill=1;endSize=5;jettySize=auto;orthogonalLoop=1;strokeColor=#B3B3B3;strokeWidth=1;fontFamily=Verdana;fontSize=12" parent="1" source="2c924340bb9dbf6c-5" target="2c924340bb9dbf6c-59" edge="1">
          <mxGeometry relative="1" as="geometry" />
        </mxCell>
      </root>
    </mxGraphModel>
  </diagram>
</mxfile>
